<?xml version="1.0" encoding="UTF-8" standalone="no"?>
<!DOCTYPE svg PUBLIC "-//W3C//DTD SVG 1.1//EN" "http://www.w3.org/Graphics/SVG/1.1/DTD/svg11.dtd">
<svg width="100%" height="100%" viewBox="0 0 151 61" version="1.1" xmlns="http://www.w3.org/2000/svg" xmlns:xlink="http://www.w3.org/1999/xlink" xml:space="preserve" xmlns:serif="http://www.serif.com/" style="fill-rule:evenodd;clip-rule:evenodd;stroke-linejoin:round;stroke-miterlimit:2;">
    <g transform="matrix(1,0,0,1,-367,-576)">
        <g>
            <g transform="matrix(1.27652,0,0,1.27652,-439.23,-237.146)">
                <g transform="matrix(0.28624,0,0,0.471176,524.089,375.565)">
                    <path d="M608.61,594.371C608.61,598.533 607.468,602.355 605.185,605.836C602.901,609.317 599.691,612.315 595.555,614.827C591.418,617.34 586.442,619.29 580.625,620.678C574.808,622.065 568.345,622.759 561.236,622.759L525.624,622.759L525.624,565.984L561.236,565.984C568.345,565.984 574.808,566.684 580.625,568.084C586.442,569.485 591.418,571.435 595.555,573.935C599.691,576.434 602.901,579.425 605.185,582.906C607.468,586.388 608.61,590.209 608.61,594.371ZM590.772,594.371C590.772,591.256 590.093,588.462 588.736,585.988C587.379,583.515 585.418,581.421 582.855,579.706C580.291,577.992 577.189,576.676 573.548,575.76C569.907,574.844 565.803,574.386 561.236,574.386L543.074,574.386L543.074,614.356L561.236,614.356C565.803,614.356 569.907,613.898 573.548,612.982C577.189,612.066 580.291,610.751 582.855,609.036C585.418,607.322 587.379,605.228 588.736,602.754C590.093,600.28 590.772,597.486 590.772,594.371Z" style="fill:rgb(18,100,88);fill-rule:nonzero;"/>
                    <path d="M786.604,565.984L757.585,622.759L741.88,622.759L721.456,583.966C720.896,583.024 720.379,581.872 719.905,580.511C719.647,581.166 719.388,581.781 719.13,582.357C718.871,582.932 718.591,583.469 718.289,583.966L697.672,622.759L681.902,622.759L652.947,565.984C652.947,565.984 669.477,563.448 673.754,573.383C674.067,574.111 689.205,602.342 689.205,602.342C689.55,603.179 689.884,604.089 690.207,605.07C690.53,606.052 690.864,607.079 691.209,608.153C691.554,607.053 691.931,606.019 692.34,605.051C692.749,604.082 693.191,603.179 693.665,602.342L712.02,568.379C712.365,567.777 713.043,567.227 714.056,566.73C715.069,566.232 716.307,565.984 717.772,565.984L722.878,565.984C724.386,565.984 725.614,566.206 726.562,566.651C727.51,567.096 728.221,567.672 728.695,568.379L746.986,602.342C747.89,603.965 748.709,605.836 749.442,607.956C750.002,605.888 750.626,604.017 751.316,602.342C751.316,602.342 766.721,574.145 767.103,573.383C771.996,563.655 786.604,565.984 786.604,565.984Z" style="fill:rgb(18,100,88);fill-rule:nonzero;"/>
                </g>
                <g transform="matrix(1.83697e-16,-1,1,1.83697e-16,4.79107,1185.23)">
                    <path d="M521.158,702.509C516.231,702.473 516.231,697.509 516.231,697.509L537.962,697.509C542.982,697.509 542.982,702.509 542.982,702.509C542.982,702.509 525.572,702.542 521.158,702.509Z" style="fill:rgb(18,100,88);"/>
                </g>
            </g>
            <g transform="matrix(0.396114,0,0,0.25,211.639,483.012)">
                <path d="M545.531,572.213C545.384,572.56 545.239,572.816 545.097,572.98C544.955,573.145 544.779,573.227 544.569,573.227C544.359,573.227 544.144,573.089 543.923,572.811C543.702,572.534 543.439,572.226 543.135,571.888C542.83,571.55 542.467,571.243 542.047,570.965C541.627,570.688 541.122,570.549 540.534,570.549C539.966,570.549 539.462,570.688 539.02,570.965C538.579,571.243 538.209,571.624 537.909,572.109C537.61,572.595 537.384,573.167 537.231,573.825C537.079,574.484 537.003,575.195 537.003,575.957C537.003,576.755 537.126,577.418 537.373,577.946C537.62,578.475 537.943,578.939 538.343,579.337C538.742,579.736 539.199,580.091 539.714,580.403C540.229,580.715 540.752,581.045 541.283,581.391C541.813,581.738 542.336,582.137 542.851,582.587C543.366,583.038 543.823,583.593 544.222,584.251C544.622,584.91 544.945,585.703 545.192,586.63C545.439,587.558 545.562,588.68 545.562,589.997C545.562,591.835 545.368,593.568 544.979,595.197C544.59,596.827 544.039,598.252 543.324,599.474C542.609,600.696 541.737,601.667 540.707,602.386C539.677,603.106 538.527,603.465 537.255,603.465C536.593,603.465 535.941,603.348 535.3,603.114C534.659,602.88 534.055,602.547 533.488,602.113C532.92,601.68 532.395,601.16 531.911,600.553C531.428,599.947 531.007,599.271 530.65,598.525L532.1,595.301C532.216,595.059 532.363,594.859 532.542,594.703C532.72,594.547 532.899,594.469 533.078,594.469C533.246,594.469 533.411,594.556 533.574,594.729C533.737,594.903 533.916,595.115 534.11,595.366C534.305,595.618 534.515,595.895 534.741,596.198C534.967,596.502 535.224,596.779 535.513,597.03C535.802,597.282 536.133,597.494 536.506,597.667C536.879,597.841 537.302,597.927 537.775,597.927C538.973,597.927 539.909,597.373 540.581,596.263C541.254,595.154 541.59,593.62 541.59,591.661C541.59,590.795 541.469,590.084 541.227,589.529C540.986,588.975 540.665,588.507 540.266,588.125C539.866,587.744 539.412,587.41 538.902,587.124C538.393,586.838 537.875,586.535 537.35,586.214C536.824,585.894 536.307,585.521 535.797,585.096C535.287,584.672 534.833,584.126 534.433,583.458C534.034,582.791 533.713,581.972 533.472,581.001C533.23,580.031 533.109,578.835 533.109,577.413C533.109,575.801 533.291,574.25 533.653,572.759C534.016,571.269 534.536,569.956 535.214,568.82C535.891,567.685 536.711,566.775 537.673,566.09C538.634,565.406 539.719,565.063 540.928,565.063C541.548,565.063 542.144,565.167 542.717,565.375C543.29,565.583 543.823,565.878 544.317,566.259C544.811,566.641 545.265,567.096 545.681,567.624C546.096,568.153 546.456,568.738 546.76,569.379L545.531,572.213Z" style="fill:rgb(18,100,88);fill-rule:nonzero;"/>
                <path d="M557.07,597.641C557.805,597.641 558.48,597.412 559.095,596.952C559.71,596.493 560.249,595.843 560.711,595.002C561.173,594.162 561.554,593.152 561.854,591.973C562.153,590.795 562.356,589.486 562.461,588.047L564.132,565.453L568.23,565.453L566.543,588.047C566.375,590.266 566.018,592.32 565.471,594.209C564.925,596.099 564.224,597.728 563.367,599.097C562.511,600.467 561.512,601.537 560.372,602.308C559.232,603.08 557.984,603.465 556.628,603.465C555.273,603.465 554.082,603.08 553.058,602.308C552.033,601.537 551.195,600.467 550.544,599.097C549.892,597.728 549.435,596.099 549.172,594.209C548.909,592.32 548.862,590.266 549.03,588.047L550.67,565.453L554.768,565.453L553.097,588.021C552.992,589.46 553,590.773 553.121,591.96C553.242,593.148 553.473,594.162 553.814,595.002C554.156,595.843 554.597,596.493 555.139,596.952C555.68,597.412 556.323,597.641 557.07,597.641Z" style="fill:rgb(18,100,88);fill-rule:nonzero;"/>
                <path d="M578.271,584.485C579.08,584.485 579.779,584.286 580.368,583.887C580.956,583.489 581.442,582.93 581.826,582.21C582.21,581.491 582.493,580.637 582.677,579.649C582.861,578.661 582.953,577.569 582.953,576.373C582.953,575.524 582.879,574.744 582.732,574.033C582.585,573.323 582.359,572.72 582.055,572.226C581.75,571.732 581.369,571.347 580.912,571.069C580.455,570.792 579.911,570.653 579.28,570.653L576.443,570.653L575.418,584.485L578.271,584.485ZM579.674,565.453C580.967,565.453 582.078,565.709 583.008,566.22C583.938,566.732 584.703,567.447 585.302,568.365C585.901,569.284 586.345,570.372 586.634,571.628C586.923,572.885 587.067,574.267 587.067,575.775C587.067,577.786 586.875,579.645 586.492,581.352C586.108,583.06 585.533,584.533 584.766,585.772C583.999,587.012 583.04,587.982 581.889,588.684C580.738,589.386 579.396,589.737 577.861,589.737L575.024,589.737L574.031,603.049L569.964,603.049L572.738,565.453L579.674,565.453Z" style="fill:rgb(18,100,88);fill-rule:nonzero;"/>
                <path d="M594.807,570.835L594.003,581.521L601.207,581.521L600.813,586.695L593.609,586.695L592.789,597.667L601.995,597.667L601.585,603.049L588.281,603.049L591.087,565.453L604.375,565.453L603.966,570.835L594.807,570.835Z" style="fill:rgb(18,100,88);fill-rule:nonzero;"/>
                <path d="M613.077,583.419C613.897,583.419 614.603,583.224 615.197,582.834C615.791,582.444 616.282,581.907 616.671,581.222C617.06,580.538 617.349,579.736 617.538,578.817C617.727,577.899 617.822,576.911 617.822,575.853C617.822,574.224 617.514,572.95 616.899,572.031C616.285,571.113 615.342,570.653 614.07,570.653L611.674,570.653L610.728,583.419L613.077,583.419ZM614.448,565.453C615.762,565.453 616.889,565.683 617.83,566.142C618.77,566.602 619.54,567.243 620.139,568.066C620.738,568.89 621.179,569.873 621.463,571.017C621.747,572.161 621.889,573.418 621.889,574.787C621.889,576.226 621.765,577.587 621.518,578.869C621.271,580.152 620.917,581.313 620.454,582.353C619.992,583.393 619.424,584.303 618.752,585.083C618.079,585.863 617.317,586.47 616.466,586.903C616.708,587.146 616.926,587.441 617.12,587.787C617.315,588.134 617.485,588.55 617.632,589.035L621.699,603.049L618.027,603.049C617.322,603.049 616.855,602.599 616.624,601.697L613.282,589.503C613.156,589.053 613.001,588.728 612.817,588.528C612.633,588.329 612.346,588.229 611.958,588.229L610.366,588.229L609.262,603.049L605.195,603.049L607.97,565.453L614.448,565.453Z" style="fill:rgb(18,100,88);fill-rule:nonzero;"/>
                <path d="M649.821,565.453L647.015,603.049L643.421,603.049L645.25,578.557C645.292,578.107 645.342,577.621 645.4,577.101C645.457,576.581 645.523,576.044 645.597,575.489L637.762,596.913C637.584,597.399 637.36,597.763 637.092,598.005C636.824,598.248 636.533,598.369 636.217,598.369L635.65,598.369C635.335,598.369 635.059,598.248 634.822,598.005C634.586,597.763 634.415,597.399 634.31,596.913L629.613,575.489C629.602,576.027 629.589,576.547 629.573,577.049C629.557,577.552 629.534,578.02 629.502,578.453L627.705,603.049L624.095,603.049L626.901,565.453L629.975,565.453C630.154,565.453 630.304,565.466 630.424,565.492C630.545,565.518 630.653,565.57 630.748,565.648C630.842,565.726 630.932,565.839 631.016,565.986C631.1,566.134 631.189,566.32 631.284,566.545L635.997,588.021C636.186,588.94 636.344,589.876 636.47,590.829C636.606,590.344 636.746,589.867 636.887,589.399C637.029,588.931 637.184,588.472 637.352,588.021L645.266,566.545C645.392,566.32 645.505,566.134 645.605,565.986C645.704,565.839 645.807,565.726 645.912,565.648C646.017,565.57 646.133,565.518 646.259,565.492C646.385,565.466 646.537,565.453 646.716,565.453L649.821,565.453Z" style="fill:rgb(18,100,88);fill-rule:nonzero;"/>
                <path d="M658.334,570.835L657.53,581.521L664.733,581.521L664.339,586.695L657.135,586.695L656.316,597.667L665.522,597.667L665.112,603.049L651.807,603.049L654.613,565.453L667.902,565.453L667.492,570.835L658.334,570.835Z" style="fill:rgb(18,100,88);fill-rule:nonzero;"/>
                <path d="M676.603,583.419C677.423,583.419 678.13,583.224 678.723,582.834C679.317,582.444 679.808,581.907 680.197,581.222C680.586,580.538 680.875,579.736 681.064,578.817C681.253,577.899 681.348,576.911 681.348,575.853C681.348,574.224 681.041,572.95 680.426,572.031C679.811,571.113 678.868,570.653 677.596,570.653L675.2,570.653L674.255,583.419L676.603,583.419ZM677.975,565.453C679.288,565.453 680.415,565.683 681.356,566.142C682.296,566.602 683.066,567.243 683.665,568.066C684.264,568.89 684.706,569.873 684.989,571.017C685.273,572.161 685.415,573.418 685.415,574.787C685.415,576.226 685.292,577.587 685.045,578.869C684.798,580.152 684.443,581.313 683.981,582.353C683.518,583.393 682.951,584.303 682.278,585.083C681.606,585.863 680.844,586.47 679.992,586.903C680.234,587.146 680.452,587.441 680.647,587.787C680.841,588.134 681.012,588.55 681.159,589.035L685.226,603.049L681.553,603.049C680.849,603.049 680.381,602.599 680.15,601.697L676.808,589.503C676.682,589.053 676.527,588.728 676.343,588.528C676.159,588.329 675.873,588.229 675.484,588.229L673.892,588.229L672.789,603.049L668.722,603.049L671.496,565.453L677.975,565.453Z" style="fill:rgb(18,100,88);fill-rule:nonzero;"/>
                <path d="M696.906,597.745C697.548,597.745 698.105,597.663 698.577,597.498C699.05,597.334 699.465,597.121 699.823,596.861C700.18,596.601 700.482,596.328 700.729,596.042C700.976,595.756 701.194,595.483 701.383,595.223C701.572,594.963 701.741,594.751 701.888,594.586C702.035,594.422 702.182,594.339 702.329,594.339C702.466,594.339 702.576,594.383 702.66,594.469C702.744,594.556 702.813,594.643 702.865,594.729L704.3,597.667C703.312,599.539 702.15,600.974 700.816,601.97C699.481,602.967 697.947,603.465 696.213,603.465C694.805,603.465 693.554,603.054 692.461,602.23C691.368,601.407 690.446,600.267 689.695,598.811C688.943,597.355 688.371,595.631 687.977,593.637C687.582,591.644 687.385,589.469 687.385,587.111C687.385,584.945 687.527,582.895 687.811,580.962C688.095,579.03 688.499,577.244 689.025,575.606C689.55,573.968 690.178,572.499 690.909,571.199C691.639,569.899 692.453,568.79 693.352,567.871C694.25,566.953 695.217,566.251 696.252,565.765C697.287,565.28 698.367,565.037 699.492,565.037C700.322,565.037 701.079,565.163 701.762,565.414C702.445,565.666 703.062,566.017 703.614,566.467C704.166,566.918 704.665,567.46 705.111,568.092C705.558,568.725 705.96,569.431 706.317,570.211L704.899,573.019C704.793,573.227 704.67,573.409 704.528,573.565C704.386,573.721 704.21,573.799 704,573.799C703.769,573.799 703.548,573.643 703.338,573.331C703.128,573.019 702.862,572.677 702.542,572.304C702.221,571.932 701.806,571.589 701.297,571.277C700.787,570.965 700.117,570.809 699.287,570.809C698.194,570.809 697.177,571.178 696.237,571.914C695.296,572.651 694.479,573.704 693.785,575.073C693.092,576.443 692.548,578.094 692.154,580.026C691.76,581.959 691.563,584.13 691.563,586.539C691.563,588.29 691.697,589.859 691.965,591.245C692.233,592.632 692.606,593.806 693.084,594.768C693.562,595.73 694.127,596.467 694.778,596.978C695.43,597.49 696.139,597.745 696.906,597.745Z" style="fill:rgb(18,100,88);fill-rule:nonzero;"/>
                <path d="M719.101,588.905L717.557,576.035C717.493,575.446 717.42,574.761 717.336,573.981C717.252,573.201 717.168,572.352 717.084,571.433C716.873,572.352 716.669,573.201 716.469,573.981C716.269,574.761 716.091,575.455 715.933,576.061L712.481,588.905L719.101,588.905ZM725.044,603.049L721.876,603.049C721.518,603.049 721.243,602.906 721.048,602.62C720.854,602.334 720.714,601.966 720.63,601.515L719.685,593.663L711.188,593.663L709.076,601.515C708.96,601.914 708.774,602.269 708.516,602.581C708.259,602.893 707.962,603.049 707.626,603.049L704.41,603.049L715.428,565.453L719.606,565.453L725.044,603.049Z" style="fill:rgb(18,100,88);fill-rule:nonzero;"/>
                <path d="M747.617,581.729C747.617,584.849 747.313,587.718 746.703,590.335C746.093,592.953 745.245,595.202 744.157,597.082C743.07,598.963 741.78,600.428 740.287,601.476C738.795,602.525 737.166,603.049 735.401,603.049L727.377,603.049L730.183,565.453L738.222,565.453C739.673,565.453 740.978,565.861 742.14,566.675C743.301,567.49 744.286,568.617 745.095,570.055C745.904,571.494 746.527,573.21 746.963,575.203C747.399,577.197 747.617,579.372 747.617,581.729ZM743.424,581.885C743.424,580.204 743.298,578.679 743.046,577.309C742.794,575.94 742.429,574.774 741.95,573.812C741.472,572.85 740.886,572.109 740.193,571.589C739.499,571.069 738.706,570.809 737.812,570.809L733.903,570.809L731.885,597.667L735.811,597.667C736.956,597.667 737.996,597.303 738.932,596.575C739.867,595.847 740.668,594.803 741.336,593.442C742.003,592.082 742.518,590.426 742.88,588.476C743.243,586.526 743.424,584.329 743.424,581.885Z" style="fill:rgb(18,100,88);fill-rule:nonzero;"/>
                <path d="M771.388,581.729C771.388,583.809 771.249,585.79 770.971,587.67C770.692,589.551 770.296,591.297 769.781,592.909C769.266,594.521 768.64,595.977 767.905,597.277C767.169,598.577 766.347,599.687 765.438,600.605C764.529,601.524 763.544,602.23 762.482,602.724C761.421,603.218 760.307,603.465 759.14,603.465C757.69,603.465 756.387,603.041 755.231,602.191C754.075,601.342 753.09,600.172 752.275,598.681C751.461,597.191 750.838,595.431 750.407,593.403C749.977,591.375 749.761,589.174 749.761,586.799C749.761,584.719 749.9,582.739 750.179,580.858C750.457,578.978 750.857,577.231 751.377,575.619C751.897,574.007 752.522,572.551 753.253,571.251C753.983,569.951 754.803,568.838 755.712,567.91C756.621,566.983 757.606,566.272 758.667,565.778C759.729,565.284 760.848,565.037 762.025,565.037C763.475,565.037 764.778,565.462 765.934,566.311C767.09,567.161 768.073,568.331 768.882,569.821C769.691,571.312 770.311,573.076 770.742,575.112C771.173,577.149 771.388,579.355 771.388,581.729ZM767.195,581.885C767.195,580.187 767.067,578.644 766.809,577.257C766.552,575.871 766.179,574.683 765.69,573.695C765.201,572.707 764.605,571.945 763.901,571.407C763.197,570.87 762.403,570.601 761.521,570.601C760.386,570.601 759.353,570.983 758.423,571.745C757.493,572.508 756.697,573.591 756.035,574.995C755.373,576.399 754.861,578.089 754.498,580.065C754.135,582.041 753.954,584.234 753.954,586.643C753.954,588.342 754.08,589.885 754.332,591.271C754.585,592.658 754.953,593.841 755.436,594.82C755.919,595.8 756.51,596.554 757.209,597.082C757.908,597.611 758.704,597.875 759.597,597.875C760.743,597.875 761.783,597.494 762.719,596.731C763.654,595.969 764.453,594.894 765.115,593.507C765.777,592.121 766.289,590.444 766.652,588.476C767.014,586.509 767.195,584.312 767.195,581.885Z" style="fill:rgb(18,100,88);fill-rule:nonzero;"/>
            </g>
            <g transform="matrix(6.59104e-17,-1.0764,1.0764,6.59104e-17,-270.69,1369.24)">
                <g transform="matrix(-1,0,0,-1,1257.05,1320.6)">
                    <path d="M525.056,702.498C520.129,702.461 520.129,697.498 520.129,697.498C520.129,697.498 533.547,697.483 537.962,697.483C542.982,697.483 542.982,702.483 542.982,702.483C542.982,702.483 529.47,702.53 525.056,702.498Z" style="fill:rgb(198,163,38);"/>
                </g>
                <g transform="matrix(-6.12323e-17,1,-1,-6.12323e-17,1408.73,72.296)">
                    <path d="M525.056,702.498C520.129,702.461 520.129,697.498 520.129,697.498C520.129,697.498 533.547,697.483 537.962,697.483C542.982,697.483 542.982,702.483 542.982,702.483C542.982,702.483 529.47,702.53 525.056,702.498Z" style="fill:rgb(198,163,38);"/>
                </g>
                <g transform="matrix(1,1.22465e-16,-1.22465e-16,1,160.412,-79.3921)">
                    <path d="M525.056,702.498C520.129,702.461 520.129,697.498 520.129,697.498C520.129,697.498 533.547,697.483 537.962,697.483C542.982,697.483 542.982,702.483 542.982,702.483C542.982,702.483 529.47,702.53 525.056,702.498Z" style="fill:rgb(198,163,38);"/>
                </g>
                <g transform="matrix(-0.707107,-0.707107,0.707107,-0.707107,601.474,1503.28)">
                    <path d="M531.556,702.498C526.629,702.461 526.629,697.498 526.629,697.498C526.629,697.498 533.547,697.483 537.962,697.483C542.982,697.483 542.982,702.483 542.982,702.483C542.982,702.483 535.97,702.53 531.556,702.498Z" style="fill:rgb(198,163,38);"/>
                </g>
                <g transform="matrix(-0.707107,0.707107,-0.707107,-0.707107,1591.41,727.85)">
                    <path d="M531.556,702.498C526.629,702.461 526.629,697.498 526.629,697.498C526.629,697.498 533.547,697.483 537.962,697.483C542.982,697.483 542.982,702.483 542.982,702.483C542.982,702.483 535.97,702.53 531.556,702.498Z" style="fill:rgb(198,163,38);"/>
                </g>
                <g transform="matrix(0.707107,0.707107,-0.707107,0.707107,815.988,-262.075)">
                    <path d="M531.556,702.498C526.629,702.461 526.629,697.498 526.629,697.498C526.629,697.498 533.547,697.483 537.962,697.483C542.982,697.483 542.982,702.483 542.982,702.483C542.982,702.483 535.97,702.53 531.556,702.498Z" style="fill:rgb(198,163,38);"/>
                </g>
                <g transform="matrix(0.707107,-0.707107,0.707107,0.707107,-173.947,513.358)">
                    <path d="M531.556,702.498C526.629,702.461 526.629,697.498 526.629,697.498C526.629,697.498 533.547,697.483 537.962,697.483C542.982,697.483 542.982,702.483 542.982,702.483C542.982,702.483 535.97,702.53 531.556,702.498Z" style="fill:rgb(198,163,38);"/>
                </g>
            </g>
        </g>
    </g>
</svg>
